<?xml version="1.0" encoding="utf-8"?>
<!-- Generator: Adobe Illustrator 27.5.0, SVG Export Plug-In . SVG Version: 6.00 Build 0)  -->
<svg version="1.1" xmlns="http://www.w3.org/2000/svg" xmlns:xlink="http://www.w3.org/1999/xlink" x="0px" y="0px"
	 viewBox="0 0 500 500" style="enable-background:new 0 0 500 500;" xml:space="preserve">
<g id="BACKGROUND">
	<rect transform="matrix(6.123234e-17 -1 1 6.123234e-17 -2.842171e-14 500)" style="fill:#FFFFFF;" width="500" height="500"/>
</g>
<g id="OBJECTS">
	<g>
		<g>
			<circle style="fill:#FFC483;" cx="250.044" cy="199.537" r="64.949"/>
			<g>
				<path style="fill:#F9B46E;" d="M221.27,147.422c-8.031,4.835-15.442,11.123-20.398,19.161
					c-2.891,5.136-5.613,10.666-6.584,16.518c1.249-2.972,3.34-5.489,5.053-8.197c2.678-3.961,4.819-6.847,7.276-9.801
					c4.427-5.416,8.917-10.785,13.721-15.874c0.885-0.943,1.776-1.881,2.691-2.796C222.435,146.751,221.851,147.084,221.27,147.422z
					"/>
				<path style="fill:#F9B46E;" d="M208.84,170.515c4.737-5.118,9.81-9.912,14.388-15.184
					C217.039,158.786,211.641,163.921,208.84,170.515z"/>
				<path style="fill:#F9B46E;" d="M299.858,169.864c-4.291-10.357-12.782-19.061-23.541-22.576
					c-5.193-2.146-10.813-2.246-16.347-2.14c6.218,1.681,10.677,2.811,16.034,5.936c8.695,4.844,14.728,9.601,21.219,17.301
					c1.426,1.742,2.567,3.319,4.173,5.566C300.92,172.575,300.417,171.208,299.858,169.864z"/>
			</g>
		</g>
		<g>
			<path style="fill:#FFC483;" d="M191.409,147.496c-0.617,0-1.197-0.24-1.633-0.676l-20.936-20.935c-0.9-0.9-0.9-2.365,0-3.266
				c0.436-0.436,1.016-0.676,1.633-0.676s1.197,0.24,1.633,0.676l20.936,20.936c0.436,0.436,0.676,1.016,0.676,1.633
				s-0.24,1.197-0.676,1.633C192.606,147.256,192.026,147.496,191.409,147.496z"/>
			<path style="fill:#FFC483;" d="M247.821,122.324c-1.273,0-2.309-1.036-2.309-2.309V90.408c0-1.273,1.036-2.309,2.309-2.309
				c1.273,0,2.309,1.036,2.309,2.309v29.607C250.13,121.289,249.094,122.324,247.821,122.324z"/>
			<path style="fill:#FFC483;" d="M305.509,144.415c-0.616,0-1.196-0.24-1.633-0.676c-0.436-0.436-0.676-1.016-0.676-1.632
				s0.24-1.197,0.676-1.633l20.936-20.936c0.437-0.436,1.017-0.676,1.633-0.676s1.196,0.24,1.633,0.676c0.9,0.9,0.9,2.365,0,3.265
				l-20.937,20.936C306.705,144.174,306.126,144.415,305.509,144.415z"/>
		</g>
	</g>
	<g>
		<g>
			<g>
				<path style="fill:#91D5CC;" d="M192.437,205.165l-8.606-26.432c-14.782-6.736-30.191-8.905-43.753-6.173
					c-1.31,6.505-1.489,13.435-0.582,20.516l10.171,3.312l-8.964,3.544c3.496,15.591,12.118,31.488,25.492,44.862
					c21.477,21.477,49.459,30.705,72.233,26.117c4.588-22.774-4.64-50.756-26.117-72.233c-4.112-4.112-8.464-7.771-12.971-10.974
					L192.437,205.165z"/>
				<path style="fill:#6ABCAE;" d="M151.359,183.84c27.872,23.761,53.858,49.715,77.603,77.603
					C201.075,237.699,175.12,211.712,151.359,183.84L151.359,183.84z"/>
			</g>
			<g>
				<path style="fill:#6ABCAE;" d="M204.996,200.294c0.805,5.29,2.84,10.285,5.707,14.788
					C209.443,209.549,207.639,205.207,204.996,200.294z"/>
			</g>
		</g>
		<g>
			<g>
				<path style="fill:#91D5CC;" d="M323.648,227.685l27.267-5.406c8.444-13.878,12.428-28.92,11.325-42.71
					c-6.303-2.074-13.163-3.074-20.302-3.014l-4.496,9.706l-2.454-9.321c-15.896,1.62-32.704,8.293-47.571,19.984
					c-23.875,18.774-36.361,45.463-34.51,68.621c22.068,7.26,50.948,1.42,74.823-17.355c4.571-3.595,8.721-7.481,12.436-11.576
					L323.648,227.685z"/>
				<path style="fill:#6ABCAE;" d="M349.7,189.43c-26.903,24.853-55.759,47.574-86.269,67.839
					C290.319,232.398,319.203,209.713,349.7,189.43L349.7,189.43z"/>
			</g>
			<g>
				<path style="fill:#6ABCAE;" d="M305.794,211.523c-0.093,0.287-0.181,0.576-0.271,0.863c1.122-1.625,2.252-3.245,3.343-4.891
					c5.001-7.343,8.924-15.345,12.352-23.524C314.196,191.971,308.97,201.367,305.794,211.523z"/>
				<path style="fill:#6ABCAE;" d="M302.105,208.008c1.219-1.95,2.11-4.089,2.595-6.338
					C303.458,203.608,302.562,205.751,302.105,208.008z"/>
			</g>
		</g>
	</g>
	<g>
		<g>
			<path style="fill:#F9E9DC;" d="M251.706,262.819c-17.055-19.033-35.833-38.625-60.537-45.174
				c-21.314-5.651-44.009-0.661-64.798,6.693c-20.789,7.354-40.886,17.101-62.525,21.345c1.191,3.526,2.284,7.05,3.346,10.572
				c0.289,0.014,0.57,0.026,0.835,0.027c6.466,0.026,12.932,0.051,19.399,0.077c-6.06,2.268-12.361,3.888-18.763,4.827
				c1.9,6.437,3.768,12.873,5.944,19.317c49.906,1.458,100.95,1.315,150.856,2.773c6.793,0.198,13.955,0.314,19.921-2.941
				C251.35,277.08,256.241,267.88,251.706,262.819z"/>
			<path style="fill:#F9E9DC;" d="M417.705,265.338c4.158-0.415,8.343-0.541,12.519-0.384c1.895-6.422,3.759-12.843,5.93-19.271
				c-21.639-4.244-41.737-13.991-62.525-21.345c-20.789-7.354-43.483-12.344-64.798-6.693
				c-24.703,6.549-43.482,26.141-60.537,45.174c-4.535,5.062,0.356,14.261,6.322,17.516c5.966,3.255,13.127,3.14,19.921,2.941
				c49.906-1.458,100.95-1.315,150.856-2.773c1.361-4.029,2.597-8.054,3.799-12.079
				C425.363,267.396,421.534,266.367,417.705,265.338z"/>
			<g>
				<path style="fill:#FFFFFF;" d="M156.024,237.765c2.854-1.306,8.442-0.57,11.576-0.639c3.864-0.085,7.731-0.044,11.593,0.126
					c3.862,0.169,7.717,0.466,11.559,0.889c2.062,0.227,9.055,2.007,5.407-1.122c-4.238-3.634-14.706-3.803-19.987-3.727
					C169.246,233.392,162.329,234.88,156.024,237.765z"/>
				<path style="fill:#FFFFFF;" d="M356.447,248.604c-13.935-0.385-27.869-0.77-41.804-1.156c-1.238-0.034-8.391,0.467-8.421-0.984
					c-0.024-1.168,7.217-1.569,8.354-1.689c6.569-0.693,13.201-0.777,19.786-0.259C341.839,245.104,349.256,246.469,356.447,248.604
					z"/>
				<g>
					<path style="fill:#FFFFFF;" d="M96.435,253.268c9.415-0.43,18.711-2.336,27.496-5.76
						C114.499,247.826,105.19,249.738,96.435,253.268z"/>
				</g>
			</g>
		</g>
		<path style="fill:#F9E9DC;" d="M270.805,281.67c0-11.491-9.315-20.806-20.805-20.806c-11.491,0-20.806,9.315-20.806,20.806"/>
		<g>
			<path style="fill:#AC84F4;" d="M433.832,274.608c-54.012-7.516-108.811-7.44-162.807,0.224c-0.022-0.041-0.045-0.081-0.067-0.122
				c-13.05,7.174-28.864,7.174-41.914,0c-0.022,0.041-0.045,0.081-0.067,0.122c-53.996-7.664-108.796-7.74-162.808-0.224
				c-0.993,0.138-1.686,1.061-1.545,2.054c0.542,3.811,1.085,7.621,1.627,11.432c0.14,0.984,1.048,1.666,2.033,1.529
				c51.936-7.225,104.619-7.23,156.559-0.045c15.916,7.559,34.399,7.559,50.315,0c51.94-7.184,104.623-7.179,156.559,0.045
				c0.985,0.137,1.893-0.544,2.033-1.529c0.542-3.811,1.085-7.621,1.627-11.432C435.518,275.669,434.825,274.746,433.832,274.608z"
				/>
			<g>
				<path style="fill:#916AE5;" d="M284.334,281.514c13.597,0.624,25.056-0.742,37.309-2.758
					C309.158,276.74,296.442,278.041,284.334,281.514z"/>
				<path style="fill:#916AE5;" d="M195.919,278.868c6.1,1.31,11.977,1.775,18.488,1.231
					C208.38,278.492,202.106,278.051,195.919,278.868z"/>
				<path style="fill:#916AE5;" d="M86.851,280.888c16.637-0.653,36.587-0.831,51.481-3.44
					C120.91,274.547,103.608,274.854,86.851,280.888z"/>
			</g>
		</g>
		<path style="fill:#8ABCF3;" d="M270.806,284.225c-1.411,0-2.555-1.144-2.555-2.555c0-10.064-8.188-18.251-18.251-18.251
			c-10.064,0-18.252,8.188-18.252,18.251c0,1.411-1.143,2.555-2.554,2.555c-1.411,0-2.554-1.144-2.554-2.555
			c0-12.881,10.479-23.36,23.36-23.36c12.881,0,23.36,10.479,23.36,23.36C273.36,283.082,272.217,284.225,270.806,284.225z"/>
	</g>
</g>
<g id="TEXTS">
	<g>
		
			<text transform="matrix(1 0 0 1 150.292 356.7773)" style="fill:#AC84F4; font-family:'FredokaOne-Regular'; font-size:38.572px;">BOOK LOGO</text>
		
			<text transform="matrix(1 0 0 1 147.0039 392.1608)" style="fill:#8ABCF3; font-family:'Montserrat-Regular'; font-size:27.5323px;">SLOGAN HERE</text>
	</g>
</g>
</svg>
